<?xml version="1.0" encoding="UTF-8"?>
<svg width="224px" height="55px" viewBox="0 0 224 55" version="1.1" xmlns="http://www.w3.org/2000/svg" xmlns:xlink="http://www.w3.org/1999/xlink">
    <!-- Generator: Sketch 54.1 (76490) - https://sketchapp.com -->
    <title>Logo azul@3x</title>
    <desc>Created with Sketch.</desc>
    <defs>
        <linearGradient x1="-6.01676976e-05%" y1="49.9999093%" x2="99.9999937%" y2="49.9999093%" id="linearGradient-1">
            <stop stop-color="#0073E1" offset="0%"></stop>
            <stop stop-color="#00B7D1" offset="100%"></stop>
        </linearGradient>
    </defs>
    <g id="Home" stroke="none" stroke-width="1" fill="none" fill-rule="evenodd">
        <g id="Artboard" transform="translate(-228.000000, -121.000000)">
            <g id="Logo-azul" transform="translate(227.999965, 121.059904)">
                <g id="texto" transform="translate(50.314744, 0.000000)">
                    <path d="M1.56319402e-13,-3.55271368e-14 C9.95989312,5.06350318 16.8077756,15.4746178 16.8077756,27.4698726 L16.8077756,27.4698726 C16.8077756,39.4651274 9.95989312,49.8765924 1.56319402e-13,54.9400955 L1.56319402e-13,54.9400955 L172.792492,54.9400955 L172.792492,-3.55271368e-14 L1.56319402e-13,-3.55271368e-14 Z" id="Fill-1" fill="url(#linearGradient-1)"></path>
                    <g transform="translate(23.269797, 12.193885)" fill="#FFFFFF">
                        <polygon id="Fill-4" points="1.45862409 12.9567739 5.64977674 12.9567739 8.628946 22.1225064 12.0186033 12.9567739 15.7168224 12.9567739 16.7854829 26.9635573 13.4980997 26.9635573 12.8200987 17.4464554 9.26555036 26.9635573 7.00577882 26.9635573 3.65682243 17.4464554 2.62955867 26.9635573 3.01980663e-14 26.9635573"></polygon>
                        <path d="M29.7483131,20.5707357 C29.7483131,16.9291752 28.1046215,14.6328376 25.8653744,14.6328376 C23.8720722,14.6328376 22.6809611,16.4324236 22.6809611,19.3502261 C22.6809611,22.9914363 24.3243048,25.2881242 26.5638998,25.2881242 C28.5565062,25.2881242 29.7483131,23.4878376 29.7483131,20.5707357 M26.522851,12.6672006 C30.3442165,12.6672006 33.5286298,15.1499076 33.5286298,19.9499713 C33.5286298,25.2257675 29.5635935,27.2534108 25.9064232,27.2534108 C22.0850576,27.2534108 18.9002965,24.7707038 18.9002965,19.9706401 C18.9002965,14.6948439 22.8656807,12.6672006 26.522851,12.6672006" id="Fill-6"></path>
                        <polygon id="Fill-8" points="36.0959543 12.9567739 40.1225639 12.9567739 45.8342617 21.9984936 45.8342617 12.9567739 48.7108089 12.9567739 48.7108089 26.9635573 44.9506687 26.9635573 38.930757 17.4881433 38.930757 26.9635573 36.0959543 26.9635573"></polygon>
                        <path d="M51.7501599,12.9567739 L55.4073302,12.9567739 L55.4073302,21.7914554 C55.4073302,24.2328248 56.434594,25.1226338 58.0779377,25.1226338 C59.2697445,25.1226338 60.3794538,24.3778567 60.543649,22.8049268 C60.5846978,22.5155637 60.6260945,22.1225064 60.6260945,21.8741306 L60.6260945,18.5016146 C60.6260945,14.5293535 60.3380571,12.9567739 60.3380571,12.9567739 L63.5433427,12.9567739 L63.5433427,22.0601497 C63.5433427,25.5156911 61.0985036,27.2329522 57.6058764,27.2329522 C53.3528027,27.2329522 51.7501599,25.391328 51.7501599,22.4118694 L51.7501599,12.9567739 Z" id="Fill-10"></path>
                        <polygon id="Fill-12" points="67.5691173 12.9567739 71.7606179 12.9567739 74.7394393 22.1225064 78.1294444 12.9567739 81.8276636 12.9567739 82.896324 26.9635573 79.6085929 26.9635573 78.9309398 17.4464554 75.3763915 26.9635573 73.1162721 26.9635573 69.7676636 17.4464554 68.7403998 26.9635573 66.1108411 26.9635573"></polygon>
                        <path d="M85.6067975,12.9567739 L94.6264029,12.9567739 L94.6264029,15.4398312 C94.6264029,15.4398312 92.3047103,14.8393854 89.9419688,14.8393854 L89.2639678,14.8393854 L89.2639678,18.7710096 L94.4618598,18.7710096 L94.4618598,20.5912643 L89.2639678,20.5912643 L89.2639678,25.1016146 L90.2912316,25.1016146 C92.653973,25.1016146 94.9547934,24.4395127 94.9547934,24.4395127 L94.9547934,26.9635573 L85.6067975,26.9635573 L85.6067975,12.9567739 Z" id="Fill-14"></path>
                        <polygon id="Fill-16" points="97.4605794 12.9567739 101.487537 12.9567739 107.199235 21.9984936 107.199235 12.9567739 110.075434 12.9567739 110.075434 26.9635573 106.315642 26.9635573 100.29573 17.4881433 100.29573 26.9635573 97.4605794 26.9635573"></polygon>
                        <polygon id="Fill-18" points="115.436756 15.0463885 111.183682 15.0463885 111.183682 12.9567389 123.326128 12.9567389 123.326128 15.0463885 119.093926 15.0463885 119.093926 26.9638726 115.436756 26.9638726"></polygon>
                        <path d="M134.563551,20.5707357 C134.563551,16.9291752 132.91986,14.6328376 130.680613,14.6328376 C128.687658,14.6328376 127.496199,16.4324236 127.496199,19.3502261 C127.496199,22.9914363 129.139543,25.2881242 131.379138,25.2881242 C133.372092,25.2881242 134.563551,23.4878376 134.563551,20.5707357 M131.338089,12.6672006 C135.159455,12.6672006 138.343868,15.1499076 138.343868,19.9499713 C138.343868,25.2257675 134.378832,27.2534108 130.721661,27.2534108 C126.900296,27.2534108 123.715535,24.7707038 123.715535,19.9706401 C123.715535,14.6948439 127.680919,12.6672006 131.338089,12.6672006" id="Fill-20"></path>
                        <path d="M2.94118172,8.56616242 C4.38902181,8.56616242 5.04928141,7.52606688 5.04928141,5.74644904 C5.04928141,3.80603503 4.19734476,2.94845541 2.84551713,2.94845541 C2.37693458,2.94845541 2.10002908,3.00170382 2.10002908,3.00170382 L2.10002908,8.4481051 C2.10002908,8.4481051 2.38771859,8.56616242 2.94118172,8.56616242 L2.94118172,8.56616242 Z M0.215610592,2.16549363 C0.886654206,2.1118949 1.89791589,2.04778662 2.74950467,2.04778662 C5.54952025,2.04778662 7.11459294,2.91622611 7.11459294,5.47880573 C7.11459294,8.39485669 4.8680405,9.48820064 2.37693458,9.49906051 C1.6425784,9.49906051 0.81186189,9.45597134 0.215610592,9.42374204 L0.215610592,2.16549363 Z" id="Fill-22"></path>
                        <path d="M8.43441641,2.16566879 C9.10511215,2.12292994 10.0523655,2.04761146 10.9147383,2.04761146 C12.3841464,2.04761146 14.4386739,2.21926752 14.4386739,4.03111465 C14.4386739,5.1244586 13.6403094,5.88570064 12.5650395,6.16455414 L15.0349252,9.4239172 L12.7887207,9.4239172 L10.9783988,6.4216879 L10.9783988,5.69267516 C11.9155639,5.69267516 12.6182638,5.1566879 12.6182638,4.26687898 C12.6182638,3.34484076 11.958352,2.94828025 11.0851952,2.94828025 C10.6910571,2.94828025 10.318487,3.04496815 10.318487,3.04496815 L10.318487,9.4239172 L8.43441641,9.4239172 L8.43441641,2.16566879 Z" id="Fill-24"></path>
                        <path d="M21.2519756,6.11085032 C21.2519756,4.22403503 20.4003868,3.0343535 19.2398884,3.0343535 C18.2070587,3.0343535 17.5899351,3.96690127 17.5899351,5.47852548 C17.5899351,7.36534076 18.4415239,8.55572293 19.6020223,8.55572293 C20.634852,8.55572293 21.2519756,7.62282484 21.2519756,6.11085032 M19.5804543,2.01562739 C21.5608853,2.01562739 23.2111864,3.30199682 23.2111864,5.78925796 C23.2111864,8.52349363 21.156311,9.57409873 19.2611085,9.57409873 C17.2810254,9.57409873 15.6310722,8.28737898 15.6310722,5.80011783 C15.6310722,3.06623248 17.6855997,2.01562739 19.5804543,2.01562739" id="Fill-26"></path>
                        <path d="M27.9800836,2.00487261 C29.4599278,2.00487261 30.7268749,2.33697452 30.7268749,2.33697452 L30.5988583,3.93477707 L30.4183131,3.93477707 C30.4183131,3.93477707 29.2150265,2.9377707 27.9480794,2.9377707 C26.787581,2.9377707 26.255338,3.96700637 26.255338,5.33920382 C26.255338,7.15105096 27.2241594,8.54461783 28.6615633,8.54461783 C28.948905,8.54461783 29.1618022,8.50187898 29.2578146,8.48015924 L29.2578146,5.80022293 L30.7268749,5.80022293 L30.7268749,9.01649682 C30.7268749,9.01649682 29.7152653,9.56299363 28.065312,9.56299363 C25.8403276,9.56299363 24.3180431,8.25525478 24.3180431,5.61770701 C24.3180431,2.78748408 26.4045748,2.00487261 27.9800836,2.00487261" id="Fill-28"></path>
                        <path d="M32.3233603,2.16566879 L34.218215,2.16566879 L34.218215,6.74328025 C34.218215,8.00898089 34.7508058,8.46964968 35.6023946,8.46964968 C36.219866,8.46964968 36.7948972,8.08394904 36.8801256,7.26875796 C36.9013458,7.11882166 36.9225659,6.91528662 36.9225659,6.78636943 L36.9225659,5.03898089 C36.9225659,2.98050955 36.7736771,2.16566879 36.7736771,2.16566879 L38.4340665,2.16566879 L38.4340665,6.88305732 C38.4340665,8.67353503 37.1674673,9.56299363 35.3578411,9.56299363 C33.153729,9.56299363 32.3233603,8.60907643 32.3233603,7.06522293 L32.3233603,2.16566879 Z" id="Fill-30"></path>
                        <path d="M40.116163,2.16566879 L44.7898131,2.16566879 L44.7898131,3.45238854 C44.7898131,3.45238854 43.5868744,3.14130573 42.3623676,3.14130573 L42.0110177,3.14130573 L42.0110177,5.17840764 L44.7045846,5.17840764 L44.7045846,6.12181529 L42.0110177,6.12181529 L42.0110177,8.45914013 L42.5436085,8.45914013 C43.7677674,8.45914013 44.96027,8.11582803 44.96027,8.11582803 L44.96027,9.4239172 L40.116163,9.4239172 L40.116163,2.16566879 Z" id="Fill-32"></path>
                        <path d="M46.3649393,2.16566879 C47.0359829,2.12292994 47.9832362,2.04761146 48.845609,2.04761146 C50.3146693,2.04761146 52.3695447,2.21926752 52.3695447,4.03111465 C52.3695447,5.1244586 51.5711802,5.88570064 50.4959102,6.16455414 L52.965796,9.4239172 L50.7195914,9.4239172 L48.9092695,6.4216879 L48.9092695,5.69267516 C49.8464346,5.69267516 50.5487866,5.1566879 50.5487866,4.26687898 C50.5487866,3.34484076 49.8892227,2.94828025 49.0160659,2.94828025 C48.6219278,2.94828025 48.2493577,3.04496815 48.2493577,3.04496815 L48.2493577,9.4239172 L46.3649393,9.4239172 L46.3649393,2.16566879 Z" id="Fill-34"></path>
                        <path d="M53.9770924,9.4239172 L55.871947,9.4239172 L55.871947,2.16566879 L53.9770924,2.16566879 L53.9770924,9.4239172 Z M56.40419,2.84217094e-14 L56.40419,0.235764331 L54.7966771,1.53299363 L53.8598598,1.53299363 C53.8598598,1.53299363 54.0090966,1.34031847 54.1687695,1.12557325 C54.5413396,0.621815287 54.7646729,0.246624204 54.8071132,2.84217094e-14 L56.40419,2.84217094e-14 Z" id="Fill-36"></path>
                        <path d="M61.4076568,6.5292707 L60.4071791,3.5592707 L59.4063536,6.5292707 L61.4076568,6.5292707 Z M59.5875945,2.16570382 L61.8442352,2.16570382 L64.4205696,9.42395223 L62.3872622,9.42395223 L61.7593546,7.56936624 L59.0657876,7.56936624 L58.4479683,9.42395223 L56.9152477,9.42395223 L59.5875945,2.16570382 Z" id="Fill-38"></path>
                    </g>
                </g>
                <g id="D" transform="translate(0.000000, 0.000070)">
                    <path d="M35.9973676,54.8328981 L9.59232693e-14,54.8328981 L9.59232693e-14,-7.10542736e-15 L35.9973676,-7.10542736e-15 C51.033406,-7.10542736e-15 63.2224663,12.2748089 63.2224663,27.4162739 C63.2224663,42.5580892 51.033406,54.8328981 35.9973676,54.8328981" id="Fill-39" fill="#07306D"></path>
                    <path d="M48.7670249,33.1822707 L46.7671132,32.0686083 L46.7671132,28.052207 L48.7670249,29.2166656 L48.7670249,33.1822707 Z M44.4015888,23.2202643 L42.6006594,22.0502006 L42.5509138,14.6031306 L44.4015888,19.9647548 L44.4015888,23.2202643 Z M33.7751661,21.9069204 L33.78108,25.9488949 L24.6786812,26.4911879 L24.6254569,22.4709331 L17.7953531,22.8597866 L17.7953531,18.4597866 L21.2062305,15.590328 L21.213188,11.1931306 L38.4390758,10.1236083 L38.4390758,15.0851688 L41.6179232,17.2021433 L41.6464486,21.4861879 L33.7751661,21.9069204 Z M17.7953531,14.1859013 L20.2617601,11.851379 L20.2568899,15.1422707 L17.7953531,17.2126529 L17.7953531,14.1859013 Z M39.38946,10.5061561 L41.5827882,11.9697866 L41.61027,16.0495955 L39.38946,14.570551 L39.38946,10.5061561 Z M35.7983853,26.787207 L36.2527051,26.7602325 L37.9579699,27.7712516 L37.9579699,34.8508376 L35.7983853,33.425742 L35.7983853,26.787207 Z M49.7170613,28.6645637 L46.7671132,26.9466019 L46.7671132,24.7564108 L45.351973,23.8371752 L45.351973,19.803258 L42.4521184,11.4019204 L39.0440239,9.12695223 L20.5383178,10.2759968 L16.8449688,13.7721752 L16.8449688,22.914086 L15.9551142,22.9648822 L13.2434579,25.5989268 L13.1961475,32.2539268 L13.1961475,33.7760605 L10.8553219,35.753258 L10.8553219,54.8330032 L11.8057061,54.8330032 L11.8057061,36.1992134 L13.1961475,35.0252962 L13.1961475,54.8330032 L14.1468795,54.8330032 L14.1468795,32.2570796 L14.1907113,26.0080987 L16.36108,23.9005828 L23.6879439,23.4830032 L23.7286449,26.5482898 L21.6789875,26.6702006 L19.3294652,28.7185127 L19.3294652,54.8330032 L20.2798494,54.8330032 L20.2798494,36.6700414 L23.1156957,34.361793 L23.0958671,27.5999459 L22.1454829,27.6027484 L22.16392,33.9056783 L20.2798494,35.4393726 L20.2798494,29.1557102 L22.0571236,27.6066019 L34.8476532,26.8439586 L34.8476532,33.9431624 L37.9579699,35.9946274 L37.9579699,54.7615382 C38.2762721,54.7387675 38.5931828,54.7103917 38.9083541,54.6764108 L38.9083541,35.4975255 L38.9177466,35.4835127 L38.9083541,35.4775573 L38.9083541,27.2237038 L36.4854309,25.7877484 L34.7314642,25.891793 L34.7272897,22.8145955 L41.6530582,22.4446592 L41.6537539,22.5742771 L45.8170768,25.2783854 L45.8170768,52.9938312 C46.1364226,52.8691178 46.4533333,52.738449 46.7671132,52.6025255 L46.7671132,33.1623025 L50.9088681,35.468449 L50.9088681,50.3562834 C51.2303011,50.1439904 51.5475597,49.9253917 51.8592523,49.6997866 L51.8592523,34.904086 L49.7170613,33.7116019 L49.7170613,28.6645637 Z" id="Fill-40" fill="#FFFFFF"></path>
                    <path d="M31.2066589,18.2701242 L30.7725156,18.5636911 L30.8699195,19.0807611 L31.0128946,19.8392006 L30.1456516,19.8083726 L29.7382944,19.7940096 L29.4899143,20.1187548 L29.2137046,20.4806338 L28.8860099,20.0900287 L28.5513577,19.6917166 L28.0545976,19.8409522 L27.1737876,20.105793 L27.2892809,19.4839777 L27.3908593,18.934328 L26.9125363,18.6502197 L26.5201376,18.4176083 L27.0144626,18.062035 L27.3866848,17.7950924 L27.3428531,17.3368758 L27.2729309,16.6054108 L28.4257762,16.6054108 L28.6626765,16.2726083 L29.1580452,15.5772261 L29.5570535,16.0960478 L29.8315239,16.4530223 L30.2764512,16.3997739 L31.0942965,16.3023854 L31.0167212,16.8628949 L30.9481906,17.3585955 L31.3618094,17.6360478 L31.7542082,17.8994873 L31.2066589,18.2701242 Z M31.8011708,16.9728949 L32.019634,15.3887548 L30.1835696,15.6077038 L29.1340421,14.2428631 L28.0191147,15.8077357 L26.4015135,15.8077357 L26.554229,17.4132452 L25.0681231,18.4813662 L26.5107451,19.3375446 L26.1576558,21.2436274 L28.2814097,20.6053471 L29.2432736,21.7501879 L30.1178219,20.6053471 L31.9761501,20.671207 L31.6481075,18.9322261 L33.178393,17.8977357 L31.8011708,16.9728949 Z" id="Fill-41" fill="#FFFFFF"></path>
                </g>
            </g>
        </g>
    </g>
</svg>