<svg xmlns="http://www.w3.org/2000/svg" viewBox="0 0 2048 1117" width="2048" height="1117">
<path d="M 799,685 L 721,688 L 723,722 L 730,749 L 743,776 L 754,792 L 757,792 L 811,740 L 806,731 L 802,718 Z" fill="#FFFFFF"/><path d="M 991,607 L 731,836 L 771,809 L 795,827 L 823,839 L 850,844 L 884,844 L 905,840 L 923,834 L 944,823 L 962,810 L 976,796 L 994,770 L 1005,744 L 1011,717 L 1011,667 L 1005,640 Z" fill="#FFFFFF"/><path d="M 1296,327 L 1035,567 L 1035,844 L 1111,844 L 1111,580 L 1189,578 L 1226,570 L 1254,557 L 1272,544 L 1289,527 L 1304,506 L 1314,486 L 1322,460 L 1325,441 L 1325,406 L 1322,386 L 1315,362 L 1309,348 Z" fill="#FFFFFF"/><path d="M 1035,533 L 1111,466 L 1112,340 L 1176,340 L 1190,342 L 1210,350 L 1228,364 L 1276,323 L 1326,277 L 1278,308 L 1263,296 L 1242,285 L 1228,280 L 1200,274 L 1181,272 L 1035,272 Z" fill="#FFFFFF"/><path d="M 819,279 L 794,290 L 775,303 L 759,319 L 747,336 L 741,347 L 733,369 L 727,401 L 726,427 L 804,430 L 805,409 L 808,392 L 817,369 L 829,354 L 838,347 L 850,342 L 872,340 L 892,344 L 907,353 L 917,363 L 928,383 L 933,407 L 933,442 L 930,462 L 926,474 L 915,494 L 900,508 L 890,514 L 876,519 L 863,521 L 829,521 L 829,588 L 872,589 L 888,594 L 902,602 L 915,615 L 926,631 L 977,586 L 977,584 L 962,569 L 943,555 L 965,538 L 981,520 L 989,509 L 1002,480 L 1008,455 L 1010,438 L 1010,401 L 1004,369 L 992,340 L 976,317 L 953,297 L 932,285 L 901,275 L 878,272 L 854,272 Z" fill="#FFFFFF"/>
</svg>